<svg width="120" height="121" viewBox="0 0 120 121" fill="none" xmlns="http://www.w3.org/2000/svg">
<path d="M33.4445 56.7222C34.522 57.8547 37.9888 62.1313 38.8488 63.4269C39.5594 64.4975 40.2848 65.5833 41.0394 66.653C49.28 60.279 73.8761 40.8146 89.6477 28.3062C83.9757 30.3684 77.9619 32.2779 71.8876 34.2066C58.7553 38.3763 45.3404 42.6357 34.4862 48.7222C33.0339 49.5366 31.5655 50.1909 30.0001 50.75C26.8901 52.1495 28.5323 53.218 30.6651 54.6057C31.6209 55.2276 32.6752 55.9136 33.4445 56.7222Z" fill="#C9DDF2"/>
<path d="M91.2654 27.7102L48.8155 74.4441C49.0625 74.9955 48.8648 76.1433 48.7619 76.7403C48.7465 76.8302 48.7331 76.9076 48.7238 76.9686C48.4345 78.8572 48.3488 80.6987 48.3488 82.6074C48.3488 84.2856 48.255 85.9574 48.1612 87.6285C48.0675 89.2985 47.9738 90.9678 47.9738 92.6422C47.9738 92.6887 47.9679 92.7672 47.9608 92.8608C47.9321 93.2407 47.8846 93.868 48.1405 93.6005C49.9057 91.755 51.9171 90.1257 53.929 88.4961C55.5639 87.1718 57.1992 85.8472 58.703 84.4061C58.8623 84.2534 59.0377 84.1087 59.2134 83.9638C59.4597 83.7607 59.7067 83.557 59.9113 83.3297C60.4954 82.6806 61.9606 83.8578 62.4107 84.2193C62.426 84.2316 62.4401 84.243 62.453 84.2533C64.5797 85.9547 66.6312 87.7141 68.4808 89.7116C70.345 91.725 72.2967 93.5783 74.4669 95.2602C75.0865 95.7404 75.6611 96.2712 76.2359 96.8022C76.7445 97.2719 77.2531 97.7418 77.7933 98.1769C79.8381 99.8241 80.0645 98.6866 80.4744 96.6275C80.5917 96.0382 80.724 95.3734 80.9183 94.6769C81.2306 93.5569 81.6293 92.4179 82.0308 91.2707C82.6896 89.3887 83.356 87.4848 83.6613 85.6074C85.8058 72.4226 90.3522 57.1489 94.5213 43.1425C96.3305 37.0646 98.0685 31.2254 99.5085 25.8991C99.6131 25.6256 99.8391 24.3066 99.3419 24.5241C98.7984 24.7619 98.2448 24.9738 97.6912 25.1858C97.2676 25.348 96.844 25.5102 96.4252 25.6838C94.7474 26.3795 93.0245 27.0532 91.2654 27.7102Z" fill="#C9DDF2"/>
<path fill-rule="evenodd" clip-rule="evenodd" d="M96.5748 21.7431C96.0562 21.8203 95.4319 22.0153 94.7414 22.3132C90.4607 24.1598 86.0096 25.58 81.601 26.9867C80.0172 27.492 78.4389 27.9956 76.8759 28.5166C70.0905 30.7784 63.4107 33.489 56.7196 36.2043C52.9178 37.747 49.1122 39.2914 45.2816 40.7556C41.908 42.0452 38.4258 42.9829 34.9432 43.9206C32.8198 44.4924 30.6963 45.0642 28.5972 45.7158C27.13 46.1713 27.254 43.9811 27.9999 43.7495C33.2499 43.2572 39.3468 41.4184 44.746 39.3545C48.5141 37.9141 52.2925 36.3812 56.0839 34.8429C62.8108 32.1137 69.5783 29.368 76.4016 27.0936C78.0054 26.559 79.6087 26.0474 81.2068 25.5374C85.5932 24.1378 89.9399 22.7508 94.1473 20.9359C94.9079 20.6077 95.6629 20.3623 96.354 20.2594C97.0309 20.1587 97.7402 20.1809 98.3309 20.4993C98.9706 20.8441 99.3347 21.4595 99.427 22.236C99.515 22.9761 99.3639 23.8849 99.0025 24.9606C98.2533 27.1904 97.2514 29.3459 96.271 31.4554L96.2707 31.4559C95.8716 32.3146 95.4761 33.1657 95.1026 34.011C93.8192 36.9153 92.6367 39.823 91.5972 42.8151C91.0337 44.4372 90.5826 46.0734 90.1241 47.7367C89.8943 48.57 89.6627 49.4104 89.4141 50.259C89.2901 50.682 89.1668 51.1086 89.0428 51.5372C88.5259 53.3243 87.9982 55.1487 87.3737 56.9161C86.7897 58.5688 86.2886 60.2235 85.7814 61.8984C85.5065 62.8064 85.2297 63.7202 84.937 64.643C84.4017 66.3304 83.7903 67.9886 83.1791 69.6286L82.7953 70.657C81.573 73.9302 80.3289 77.2616 79.4109 80.6274C79.2565 81.1937 79.113 81.7628 78.9696 82.3314C78.4709 84.3087 77.9739 86.2795 77.0256 88.1006C75.5162 90.9996 74.6636 90.4773 72.978 88.6787C72.7164 88.3995 72.4461 88.1111 72.1728 87.8004C69.6904 84.9776 65.4247 81.2146 61.5482 78.2494C59.6774 76.8183 57.8969 73.9563 56.4517 72.7469C52.7162 74.7666 49.8526 78.4405 46.6611 81.4681C46.4845 81.6357 46.3027 81.8324 46.1148 82.0357C45.7299 82.4521 45.3197 82.896 44.8767 83.1729C43.9485 83.7532 43.5916 82.6029 43.6954 81.8973C43.8058 81.1462 43.8598 80.385 43.9038 79.5965C43.9652 78.4978 44.003 77.3852 44.041 76.2644C44.131 73.611 44.2226 70.9113 44.6336 68.2396C44.7023 67.793 44.8092 67.3235 44.9096 66.8824C44.946 66.7223 44.9817 66.5656 45.0143 66.4154C45.1343 65.8627 45.2236 65.3571 45.2348 64.8836C45.0453 64.6544 44.7995 64.4912 44.5536 64.3278C44.3808 64.213 44.2079 64.0982 44.0544 63.9604C40.5272 60.7939 37.9849 57.6903 35.36 54.4859C33.4821 52.1934 31.5618 49.8492 29.2084 47.3934C28.9218 47.0944 28.9319 46.6196 29.2309 46.333C29.53 46.0464 30.0048 46.0565 30.2914 46.3556C32.6364 48.8026 34.5472 51.138 36.4159 53.4219C39.023 56.6084 41.5482 59.6947 45.0565 62.8442C45.0956 62.8794 45.1815 62.9418 45.3452 63.0563L45.3743 63.0767C45.5143 63.1745 45.6876 63.2956 45.8529 63.4245C46.0266 63.5598 46.2238 63.728 46.3832 63.9186C46.5278 64.0914 46.736 64.393 46.736 64.7842C46.736 65.4549 46.6127 66.1231 46.4801 66.7337C46.4401 66.918 46.3999 67.0947 46.3609 67.266C46.2649 67.6878 46.1762 68.0775 46.1162 68.4677C45.7192 71.0477 45.6328 73.6029 45.5445 76.2153C45.5059 77.357 45.4669 78.5099 45.4015 79.6803C45.3955 79.7875 45.375 79.9143 45.3552 80.0373C45.295 80.4104 45.2406 80.7481 45.6133 80.3944C46.1323 79.9022 46.653 79.3977 47.178 78.889L47.1785 78.8886C49.8599 76.2908 52.6536 73.5841 55.8943 71.8392C56.2898 71.6262 56.6005 71.7593 56.8223 72.0568C57.3869 71.5794 58.0086 71.2927 58.2499 71.4995C62.6559 75.2761 69.4408 81.4225 73.2992 85.8098C73.5044 86.0431 73.7345 86.2891 73.9749 86.5459C74.4191 87.0206 74.898 87.5324 75.3178 88.0697C75.4331 87.8899 75.5613 87.6651 75.6952 87.4079C76.5953 85.6791 77.0511 83.8463 77.5155 81.9788C77.6596 81.3995 77.8045 80.8167 77.9638 80.2327C78.8985 76.8054 80.1654 73.4125 81.4097 70.08L81.7736 69.1047C82.3851 67.4639 82.9844 65.8373 83.5072 64.1894C83.787 63.3076 84.058 62.4129 84.3305 61.5133L84.3307 61.5125C84.8452 59.8141 85.3651 58.0979 85.9594 56.4163C86.568 54.6942 87.0805 52.9224 87.5965 51.1388L87.5971 51.1368C87.7222 50.7041 87.8476 50.2708 87.9746 49.8373C88.2085 49.0386 88.4332 48.224 88.6597 47.4029L88.6599 47.4022L88.6601 47.4016C89.1268 45.7097 89.6012 43.9897 90.1803 42.3228C91.2366 39.2824 92.4355 36.3357 93.7305 33.4047C94.1295 32.5018 94.5403 31.618 94.9477 30.7417C95.9133 28.6645 96.8593 26.6296 97.5806 24.4829C97.911 23.4997 97.9877 22.8355 97.9375 22.4131C97.8916 22.0272 97.7516 21.891 97.6193 21.8197C97.4381 21.7221 97.1075 21.6638 96.5748 21.7431ZM45.266 64.9268C45.266 64.9268 45.2643 64.9244 45.2621 64.9199L45.2645 64.9238C45.2656 64.9258 45.266 64.9268 45.266 64.9268Z" fill="#270431"/>
<path d="M96.5691 23.7378C96.816 23.45 96.8092 23.0231 96.5532 22.7432C96.2972 22.4634 95.8726 22.4187 95.5639 22.6392C89.925 26.667 84.6672 30.4433 79.3902 35.0234C78.6799 35.6399 77.9513 36.2255 77.2101 36.8213L77.2063 36.8243C77.0864 36.9207 76.9661 37.0174 76.8456 37.1145C75.9838 37.8086 75.111 38.5216 74.2701 39.2945C72.2097 41.1882 69.9902 42.8593 67.7228 44.5665C67.5261 44.7146 67.329 44.863 67.1316 45.0118C63.0437 48.0942 59.1197 51.3145 55.3284 54.7642C55.135 54.9402 54.9423 55.116 54.7502 55.2912L54.7494 55.2918C52.427 57.4098 50.1841 59.4552 47.5945 61.1185C47.246 61.3423 47.145 61.8063 47.3688 62.1548C47.5926 62.5033 48.0566 62.6044 48.4052 62.3806C51.1065 60.6455 53.4405 58.5164 55.7449 56.4142C55.9427 56.2337 56.1404 56.0534 56.3379 55.8737C60.0916 52.4582 63.9796 49.2672 68.0347 46.2094C68.2342 46.0591 68.4339 45.9087 68.6338 45.7582C70.8906 44.0593 73.1679 42.345 75.2852 40.3989C76.0871 39.6619 76.9267 38.9752 77.7865 38.2827C77.8457 38.235 77.9051 38.1872 77.9646 38.1394C78.0252 38.0906 78.0859 38.0418 78.1467 37.993C78.8867 37.3982 79.6399 36.7928 80.3734 36.1562C83.9861 33.0207 87.5924 30.2636 91.343 27.5257L56.1806 68.5112C55.9109 68.8255 55.9471 69.299 56.2615 69.5687C56.5759 69.8384 59.0494 70.8022 59.3191 70.4879C59.3191 70.4879 62.9999 66.8824 71.2499 53.4219C79.4999 39.9614 96.5691 23.7378 96.5691 23.7378Z" fill="#270431"/>
<path fill-rule="evenodd" clip-rule="evenodd" d="M24.6756 80.238C24.8203 80.4732 24.747 80.7812 24.5118 80.9259C22.484 82.1738 21.7342 83.5565 21.7656 84.7073C21.797 85.8563 22.6136 86.9936 24.2063 87.7441C27.3864 89.2426 33.4261 89.0286 40.4626 84.0908C40.6886 83.9322 41.0004 83.9868 41.1591 84.2129C41.3177 84.4389 41.263 84.7507 41.037 84.9093C33.8234 89.9715 27.3961 90.3527 23.7801 88.6487C21.9748 87.798 20.8111 86.3847 20.766 84.7346C20.721 83.0864 21.7984 81.4215 23.9877 80.0742C24.2229 79.9295 24.5309 80.0028 24.6756 80.238Z" fill="#270431"/>
<path fill-rule="evenodd" clip-rule="evenodd" d="M38.3139 89.1111C38.5288 89.2846 38.5623 89.5994 38.3887 89.8142C37.8167 90.5225 37.128 91.2441 36.4315 91.9738C36.4163 91.9898 36.4011 92.0057 36.3858 92.0217C35.668 92.7739 34.9396 93.5394 34.2833 94.3409C32.9647 95.9511 31.9998 97.6332 31.9998 99.5001C31.9998 99.7762 31.7759 100 31.4998 100C31.2236 100 30.9998 99.7762 30.9998 99.5001C30.9998 97.2804 32.147 95.3712 33.5096 93.7074C34.1938 92.8719 34.9482 92.0797 35.6624 91.3313L35.692 91.3003C36.401 90.5574 37.0651 89.8615 37.6108 89.1859C37.7843 88.9711 38.0991 88.9376 38.3139 89.1111Z" fill="#270431"/>
</svg>
